<svg width="44" height="44" viewBox="0 0 44 44" fill="none" xmlns="http://www.w3.org/2000/svg">
<g filter="url(#filter0_d_450_2067)">
<g clip-path="url(#clip0_450_2067)">
<path d="M2 11C2 5.47715 6.47715 1 12 1H32C37.5228 1 42 5.47715 42 11V31C42 36.5228 37.5228 41 32 41H12C6.47715 41 2 36.5228 2 31V11Z" fill="white" fill-opacity="0.01" shape-rendering="crispEdges"/>
<g filter="url(#filter1_i_450_2067)">
<path d="M2 11C2 5.47715 6.47715 1 12 1H32C37.5228 1 42 5.47715 42 11V31C42 36.5228 37.5228 41 32 41H12C6.47715 41 2 36.5228 2 31V11Z" fill="white" fill-opacity="0.01"/>
</g>
<g clip-path="url(#clip1_450_2067)">
<path d="M32 1H12C6.47715 1 2 5.47715 2 11V31C2 36.5228 6.47715 41 12 41H32C37.5228 41 42 36.5228 42 31V11C42 5.47715 37.5228 1 32 1Z" fill="#FF0000"/>
<path fill-rule="evenodd" clip-rule="evenodd" d="M31.3766 13.5016C32.4093 13.7775 33.2225 14.5907 33.4986 15.6233C34.0001 17.4949 34 21.4001 34 21.4001C34 21.4001 34 25.305 33.4985 27.1768C33.2224 28.2094 32.4092 29.0225 31.3765 29.2986C29.505 29.8 21.9999 29.8 21.9999 29.8C21.9999 29.8 14.4949 29.8 12.6233 29.2986C11.5906 29.0224 10.7773 28.2094 10.5014 27.1767C10 25.3049 10 21.4 10 21.4C10 21.4 10 17.4949 10.5014 15.6233C10.7773 14.5907 11.5906 13.7775 12.6234 13.5016C14.495 13 22 13 22 13C22 13 29.5051 13 31.3766 13.5016ZM26.4429 21.6931L19.6001 25.5857V17.8L26.4429 21.6931Z" fill="white"/>
</g>
</g>
</g>
<defs>
<filter id="filter0_d_450_2067" x="0" y="0" width="44" height="44" filterUnits="userSpaceOnUse" color-interpolation-filters="sRGB">
<feFlood flood-opacity="0" result="BackgroundImageFix"/>
<feColorMatrix in="SourceAlpha" type="matrix" values="0 0 0 0 0 0 0 0 0 0 0 0 0 0 0 0 0 0 127 0" result="hardAlpha"/>
<feOffset dy="1"/>
<feGaussianBlur stdDeviation="1"/>
<feComposite in2="hardAlpha" operator="out"/>
<feColorMatrix type="matrix" values="0 0 0 0 0 0 0 0 0 0 0 0 0 0 0 0 0 0 0.1 0"/>
<feBlend mode="normal" in2="BackgroundImageFix" result="effect1_dropShadow_450_2067"/>
<feBlend mode="normal" in="SourceGraphic" in2="effect1_dropShadow_450_2067" result="shape"/>
</filter>
<filter id="filter1_i_450_2067" x="2" y="1" width="40" height="40" filterUnits="userSpaceOnUse" color-interpolation-filters="sRGB">
<feFlood flood-opacity="0" result="BackgroundImageFix"/>
<feBlend mode="normal" in="SourceGraphic" in2="BackgroundImageFix" result="shape"/>
<feColorMatrix in="SourceAlpha" type="matrix" values="0 0 0 0 0 0 0 0 0 0 0 0 0 0 0 0 0 0 127 0" result="hardAlpha"/>
<feMorphology radius="1" operator="erode" in="SourceAlpha" result="effect1_innerShadow_450_2067"/>
<feOffset/>
<feComposite in2="hardAlpha" operator="arithmetic" k2="-1" k3="1"/>
<feColorMatrix type="matrix" values="0 0 0 0 0 0 0 0 0 0 0 0 0 0 0 0 0 0 0.06 0"/>
<feBlend mode="normal" in2="shape" result="effect1_innerShadow_450_2067"/>
</filter>
<clipPath id="clip0_450_2067">
<path d="M2 11C2 5.47715 6.47715 1 12 1H32C37.5228 1 42 5.47715 42 11V31C42 36.5228 37.5228 41 32 41H12C6.47715 41 2 36.5228 2 31V11Z" fill="white"/>
</clipPath>
<clipPath id="clip1_450_2067">
<rect width="40" height="40" fill="white" transform="translate(2 1)"/>
</clipPath>
</defs>
</svg>
