<svg width="32" height="32" viewBox="0 0 32 32" fill="none" xmlns="http://www.w3.org/2000/svg">
<g filter="url(#filter0_d_450_2103)">
<g clip-path="url(#clip0_450_2103)">
<path d="M2 8C2 4.13401 5.13401 1 9 1H23C26.866 1 30 4.13401 30 8V22C30 25.866 26.866 29 23 29H9C5.13401 29 2 25.866 2 22V8Z" fill="white" fill-opacity="0.01" shape-rendering="crispEdges"/>
<g filter="url(#filter1_i_450_2103)">
<path d="M2 8C2 4.13401 5.13401 1 9 1H23C26.866 1 30 4.13401 30 8V22C30 25.866 26.866 29 23 29H9C5.13401 29 2 25.866 2 22V8Z" fill="white" fill-opacity="0.01"/>
</g>
<g clip-path="url(#clip1_450_2103)">
<path d="M23 1H9C5.13401 1 2 4.13401 2 8V22C2 25.866 5.13401 29 9 29H23C26.866 29 30 25.866 30 22V8C30 4.13401 26.866 1 23 1Z" fill="#006699"/>
<path fill-rule="evenodd" clip-rule="evenodd" d="M12.3136 21.3V11.8538H9.17386V21.3H12.3136ZM10.7437 10.5641C11.8386 10.5641 12.5201 9.83867 12.5201 8.93217C12.4997 8.0053 11.8386 7.30005 10.7645 7.30005C9.69053 7.30005 8.98828 8.0053 8.98828 8.93217C8.98828 9.83867 9.6696 10.5641 10.7233 10.5641H10.7437Z" fill="white"/>
<path fill-rule="evenodd" clip-rule="evenodd" d="M14.0518 21.3H17.1915V16.0248C17.1915 15.7425 17.2119 15.4604 17.2948 15.2586C17.5218 14.6945 18.0384 14.1104 18.9058 14.1104C20.0419 14.1104 20.4964 14.9766 20.4964 16.2465V21.3H23.6358V15.8837C23.6358 12.9822 22.0868 11.6321 20.0211 11.6321C18.3274 11.6321 17.5837 12.5788 17.1706 13.2237H17.1915V11.8537H14.0518C14.0931 12.7401 14.0518 21.3 14.0518 21.3Z" fill="white"/>
</g>
</g>
</g>
<defs>
<filter id="filter0_d_450_2103" x="0" y="0" width="32" height="32" filterUnits="userSpaceOnUse" color-interpolation-filters="sRGB">
<feFlood flood-opacity="0" result="BackgroundImageFix"/>
<feColorMatrix in="SourceAlpha" type="matrix" values="0 0 0 0 0 0 0 0 0 0 0 0 0 0 0 0 0 0 127 0" result="hardAlpha"/>
<feOffset dy="1"/>
<feGaussianBlur stdDeviation="1"/>
<feComposite in2="hardAlpha" operator="out"/>
<feColorMatrix type="matrix" values="0 0 0 0 0 0 0 0 0 0 0 0 0 0 0 0 0 0 0.1 0"/>
<feBlend mode="normal" in2="BackgroundImageFix" result="effect1_dropShadow_450_2103"/>
<feBlend mode="normal" in="SourceGraphic" in2="effect1_dropShadow_450_2103" result="shape"/>
</filter>
<filter id="filter1_i_450_2103" x="2" y="1" width="28" height="28" filterUnits="userSpaceOnUse" color-interpolation-filters="sRGB">
<feFlood flood-opacity="0" result="BackgroundImageFix"/>
<feBlend mode="normal" in="SourceGraphic" in2="BackgroundImageFix" result="shape"/>
<feColorMatrix in="SourceAlpha" type="matrix" values="0 0 0 0 0 0 0 0 0 0 0 0 0 0 0 0 0 0 127 0" result="hardAlpha"/>
<feMorphology radius="1" operator="erode" in="SourceAlpha" result="effect1_innerShadow_450_2103"/>
<feOffset/>
<feComposite in2="hardAlpha" operator="arithmetic" k2="-1" k3="1"/>
<feColorMatrix type="matrix" values="0 0 0 0 0 0 0 0 0 0 0 0 0 0 0 0 0 0 0.06 0"/>
<feBlend mode="normal" in2="shape" result="effect1_innerShadow_450_2103"/>
</filter>
<clipPath id="clip0_450_2103">
<path d="M2 8C2 4.13401 5.13401 1 9 1H23C26.866 1 30 4.13401 30 8V22C30 25.866 26.866 29 23 29H9C5.13401 29 2 25.866 2 22V8Z" fill="white"/>
</clipPath>
<clipPath id="clip1_450_2103">
<rect width="28" height="28" fill="white" transform="translate(2 1)"/>
</clipPath>
</defs>
</svg>
