<svg width="32" height="31" viewBox="0 0 32 31" fill="none" xmlns="http://www.w3.org/2000/svg">
<path d="M16.3975 2.6582C9.33633 2.6582 3.6123 8.38222 3.6123 15.4434C3.6123 22.5045 9.33633 28.2285 16.3975 28.2285C23.4586 28.2285 29.1826 22.5045 29.1826 15.4434C29.1826 8.38222 23.4586 2.6582 16.3975 2.6582ZM13.2678 20.7425H10.6788V12.4109H13.2678V20.7425ZM11.9573 11.3881C11.1396 11.3881 10.6108 10.8087 10.6108 10.0922C10.6108 9.36109 11.1555 8.79907 11.9906 8.79907C12.8256 8.79907 13.337 9.36109 13.353 10.0922C13.353 10.8087 12.8256 11.3881 11.9573 11.3881ZM22.7234 20.7425H20.1345V16.1252C20.1345 15.0505 19.7589 14.3207 18.8226 14.3207C18.1075 14.3207 17.6826 14.8148 17.4949 15.2902C17.4256 15.4593 17.4083 15.6991 17.4083 15.9375V20.7412H14.818V15.0678C14.818 14.0277 14.7847 13.158 14.75 12.4095H16.9994L17.118 13.5669H17.1699C17.5108 13.0235 18.3459 12.2218 19.7429 12.2218C21.4463 12.2218 22.7234 13.3631 22.7234 15.8163V20.7425Z" fill="#1E1E1E"/>
</svg>
