<svg width="25" height="24" viewBox="0 0 25 24" fill="none" xmlns="http://www.w3.org/2000/svg">
<path d="M18.8417 4.48003C17.2504 2.88873 15.0922 1.99475 12.8417 1.99475C10.5913 1.99475 8.43303 2.88873 6.84173 4.48003C5.25043 6.07133 4.35645 8.2296 4.35645 10.48C4.35645 12.7305 5.25043 14.8887 6.84173 16.48L12.1117 21.76C12.2047 21.8538 12.3153 21.9282 12.4372 21.9789C12.559 22.0297 12.6897 22.0558 12.8217 22.0558C12.9537 22.0558 13.0844 22.0297 13.2063 21.9789C13.3282 21.9282 13.4388 21.8538 13.5317 21.76L18.8417 16.43C20.4264 14.8454 21.3166 12.6961 21.3166 10.455C21.3166 8.21398 20.4264 6.06471 18.8417 4.48003ZM17.4117 15L12.8417 19.59L8.27173 15C7.36887 14.0963 6.7542 12.9453 6.50542 11.6923C6.25664 10.4394 6.38492 9.14078 6.87403 7.96071C7.36315 6.78065 8.19114 5.77208 9.25336 5.06251C10.3156 4.35294 11.5643 3.97421 12.8417 3.97421C14.1191 3.97421 15.3679 4.35294 16.4301 5.06251C17.4923 5.77208 18.3203 6.78065 18.8094 7.96071C19.2985 9.14078 19.4268 10.4394 19.178 11.6923C18.9293 12.9453 18.3146 14.0963 17.4117 15ZM9.84173 7.41003C9.03444 8.2198 8.58112 9.3166 8.58112 10.46C8.58112 11.6035 9.03444 12.7003 9.84173 13.51C10.4415 14.1108 11.2053 14.5211 12.0374 14.6894C12.8694 14.8578 13.7327 14.7766 14.5188 14.4562C15.3049 14.1358 15.9789 13.5903 16.4562 12.8883C16.9335 12.1863 17.1929 11.3589 17.2017 10.51C17.2062 9.94324 17.097 9.38129 16.8806 8.85742C16.6642 8.33355 16.345 7.85839 15.9417 7.46003C15.5454 7.05461 15.0728 6.73157 14.5511 6.5095C14.0295 6.28743 13.4691 6.17071 12.9021 6.16606C12.3352 6.16141 11.7729 6.26893 11.2477 6.48242C10.7225 6.69591 10.2446 7.01116 9.84173 7.41003ZM14.5317 12.09C14.1528 12.4748 13.6519 12.7159 13.1149 12.7723C12.5778 12.8286 12.0378 12.6967 11.5872 12.399C11.1367 12.1012 10.8035 11.6563 10.6447 11.1401C10.4859 10.624 10.5114 10.0687 10.7167 9.56919C10.922 9.06971 11.2944 8.65705 11.7703 8.40177C12.2462 8.14649 12.796 8.06444 13.3257 8.16965C13.8553 8.27486 14.332 8.56079 14.6742 8.97856C15.0164 9.39634 15.2029 9.92 15.2017 10.46C15.1872 11.0773 14.9282 11.6636 14.4817 12.09H14.5317Z" fill="#213672"/>
</svg>
