<svg width="25" height="24" viewBox="0 0 25 24" fill="none" xmlns="http://www.w3.org/2000/svg">
<path d="M18.0527 4.47991C16.4614 2.88861 14.3031 1.99463 12.0527 1.99463C9.80223 1.99463 7.64396 2.88861 6.05266 4.47991C4.46137 6.07121 3.56738 8.22947 3.56738 10.4799C3.56738 12.7303 4.46137 14.8886 6.05266 16.4799L11.3227 21.7599C11.4156 21.8536 11.5262 21.928 11.6481 21.9788C11.7699 22.0296 11.9007 22.0557 12.0327 22.0557C12.1647 22.0557 12.2954 22.0296 12.4172 21.9788C12.5391 21.928 12.6497 21.8536 12.7427 21.7599L18.0527 16.4299C19.6373 14.8452 20.5276 12.696 20.5276 10.4549C20.5276 8.21386 19.6373 6.06459 18.0527 4.47991ZM16.6227 14.9999L12.0527 19.5899L7.48266 14.9999C6.57981 14.0962 5.96514 12.9452 5.71636 11.6922C5.46758 10.4392 5.59585 9.14066 6.08497 7.96059C6.57408 6.78052 7.40208 5.77196 8.46429 5.06239C9.52651 4.35281 10.7752 3.97409 12.0527 3.97409C13.3301 3.97409 14.5788 4.35281 15.641 5.06239C16.7032 5.77196 17.5312 6.78052 18.0204 7.96059C18.5095 9.14066 18.6378 10.4392 18.389 11.6922C18.1402 12.9452 17.5255 14.0962 16.6227 14.9999ZM9.05266 7.40991C8.24538 8.21968 7.79206 9.31648 7.79206 10.4599C7.79206 11.6033 8.24538 12.7001 9.05266 13.5099C9.65243 14.1107 10.4163 14.521 11.2483 14.6893C12.0804 14.8576 12.9436 14.7765 13.7297 14.4561C14.5159 14.1356 15.1898 13.5902 15.6671 12.8882C16.1444 12.1861 16.4038 11.3588 16.4127 10.5099C16.4172 9.94311 16.308 9.38117 16.0916 8.8573C15.8751 8.33343 15.5559 7.85827 15.1527 7.45991C14.7563 7.05449 14.2837 6.73145 13.7621 6.50938C13.2404 6.2873 12.68 6.17059 12.1131 6.16594C11.5461 6.16129 10.9839 6.26881 10.4586 6.4823C9.93341 6.69579 9.45559 7.01104 9.05266 7.40991ZM13.7427 12.0899C13.3637 12.4747 12.8629 12.7158 12.3258 12.7722C11.7887 12.8285 11.2487 12.6966 10.7982 12.3988C10.3476 12.1011 10.0145 11.6562 9.85567 11.14C9.69688 10.6238 9.72231 10.0685 9.92762 9.56907C10.1329 9.06958 10.5054 8.65693 10.9812 8.40165C11.4571 8.14637 12.0069 8.06432 12.5366 8.16953C13.0663 8.27474 13.543 8.56067 13.8852 8.97844C14.2274 9.39621 14.4138 9.91988 14.4127 10.4599C14.3981 11.0772 14.1392 11.6634 13.6927 12.0899H13.7427Z" fill="#021A5F"/>
</svg>
