<svg width="31" height="31" viewBox="0 0 31 31" fill="none" xmlns="http://www.w3.org/2000/svg">
<path d="M19.2975 15.4434C19.2975 16.2061 19.0776 16.9517 18.6656 17.5859C18.2536 18.2202 17.668 18.7145 16.9829 19.0064C16.2978 19.2983 15.5439 19.3746 14.8166 19.2258C14.0892 19.077 13.4212 18.7097 12.8968 18.1704C12.3724 17.631 12.0153 16.9438 11.8706 16.1957C11.726 15.4476 11.8002 14.6722 12.084 13.9675C12.3678 13.2628 12.8484 12.6605 13.465 12.2367C14.0816 11.813 14.8065 11.5868 15.548 11.5868C16.5415 11.59 17.4934 11.9973 18.1959 12.7199C18.8984 13.4424 19.2944 14.4215 19.2975 15.4434ZM27.265 10.1406V20.7461C27.265 22.5361 26.5737 24.2527 25.3432 25.5184C24.1127 26.7841 22.4437 27.4951 20.7035 27.4951H10.3926C8.65235 27.4951 6.9834 26.7841 5.75288 25.5184C4.52235 24.2527 3.83105 22.5361 3.83105 20.7461V10.1406C3.83105 8.35064 4.52235 6.63401 5.75288 5.36833C6.9834 4.10265 8.65235 3.3916 10.3926 3.3916H20.7035C22.4437 3.3916 24.1127 4.10265 25.3432 5.36833C26.5737 6.63401 27.265 8.35064 27.265 10.1406ZM21.1722 15.4434C21.1722 14.2992 20.8423 13.1808 20.2244 12.2295C19.6064 11.2782 18.728 10.5367 17.7003 10.0989C16.6726 9.66102 15.5418 9.54646 14.4508 9.76967C13.3598 9.99288 12.3577 10.5438 11.5712 11.3529C10.7846 12.1619 10.249 13.1926 10.032 14.3148C9.81494 15.4369 9.92632 16.6001 10.352 17.6571C10.7777 18.7142 11.4985 19.6176 12.4234 20.2533C13.3483 20.8889 14.4357 21.2282 15.548 21.2282C17.0397 21.2282 18.4702 20.6187 19.5249 19.5339C20.5797 18.449 21.1722 16.9776 21.1722 15.4434ZM23.0469 9.17644C23.0469 8.89041 22.9644 8.6108 22.8099 8.37297C22.6555 8.13515 22.4359 7.94978 22.1789 7.84032C21.922 7.73086 21.6393 7.70222 21.3666 7.75802C21.0938 7.81382 20.8433 7.95156 20.6467 8.15382C20.45 8.35607 20.3161 8.61376 20.2619 8.8943C20.2076 9.17484 20.2354 9.46562 20.3419 9.72989C20.4483 9.99415 20.6285 10.22 20.8597 10.3789C21.0909 10.5378 21.3628 10.6227 21.6409 10.6227C22.0138 10.6227 22.3714 10.4703 22.6351 10.1991C22.8988 9.92785 23.0469 9.56 23.0469 9.17644Z" fill="#1E1E1E"/>
</svg>
